<svg height="512pt" viewBox="0 0 512 512.004" width="512pt" xmlns="http://www.w3.org/2000/svg"><path d="m512.003906 256c0 141.386719-114.617187 256-256 256-141.386718 0-255.99999975-114.613281-255.99999975-256s114.61328175-256 255.99999975-256c141.382813 0 256 114.613281 256 256zm0 0" fill="#8f95e6"/><path d="m256.003906 492c-138.035156 0-250.535156-109.253906-255.789062-246-.1289065 3.320312-.21093775 6.648438-.21093775 10 0 141.382812 114.61328175 256 255.99999975 256 141.382813 0 256-114.617188 256-256 0-3.351562-.085937-6.679688-.214844-10-5.253906 136.746094-117.753906 246-255.785156 246zm0 0" fill="#6770e6"/><path d="m323.425781 102.585938c-2.910156-11.25-15.328125-27.199219-62.375-27.199219-72.6875 0-83.039062 10.765625-102.382812-7.824219-16.320313-15.683594-25.90625 59.800781-4.144531 83.773438-9.183594 33.953124-1.835938 67.960937-1.835938 67.960937h204.511719c-.003907 0 17.160156-79.4375-33.773438-116.710937zm0 0" fill="#339"/><path d="m158.664062 85.714844c19.347657 18.589844 29.695313 7.824218 102.382813 7.824218 47.050781 0 59.46875 15.945313 62.375 27.199219 27.089844 19.820313 34.917969 51.566407 36.308594 76.949219 1.367187-26.257812-2.179688-70.128906-36.308594-95.097656-2.90625-11.253906-15.324219-27.199219-62.375-27.199219-72.6875 0-83.035156 10.761719-102.382813-7.828125-10.726562-10.308594-18.539062 18.765625-16.460937 46.71875 1.507813-20.667969 8.09375-36.609375 16.460937-28.566406zm0 0" fill="#5861c7"/><path d="m173.335938 222.867188s-8.816407-16.148438-26.449219-16.148438c-17.632813 0-30.125 77.523438 26.449219 64.601562zm0 0" fill="#ffe4d1"/><path d="m336.542969 222.867188s8.816406-16.148438 26.449219-16.148438c17.636718 0 30.125 77.523438-26.449219 64.601562zm0 0" fill="#ffe4d1"/><path d="m254.941406 118.984375c-135.09375 0-109.265625 221.5625 0 221.5625 109.261719 0 135.09375-221.5625 0-221.5625zm0 0" fill="#ffefe4"/><path d="m254.941406 106.925781s-91.890625-12.964843-91.890625 104.9375c0 0 11.570313-48.730469 38.113281-62.019531 12.363282-6.191406 16.890626 9.492188 53.777344 9.492188 36.882813 0 41.414063-15.683594 53.773438-9.492188 26.546875 13.289062 38.113281 62.019531 38.113281 62.019531 0-117.902343-91.886719-104.9375-91.886719-104.9375zm0 0" fill="#339"/><path d="m440.828125 433.121094c-6.566406-16.089844-19.90625-28.988282-37.136719-34.652344l-83.015625-27.277344c-7.832031-2.574218-13.152343-9.851562-13.226562-18.097656l-.296875-33.523438c-13.875 12.492188-31.148438 20.234376-51.347656 20.414063-20.195313.175781-37.601563-7.261719-51.699219-19.503906l.285156 32.347656c.074219 8.371094-5.277344 15.828125-13.234375 18.441406l-82.984375 27.214844c-17.191406 5.640625-30.519531 18.480469-37.113281 34.515625 46.601562 48.679688 112.230468 79 184.945312 79 72.648438 0 138.226563-30.269531 184.824219-78.878906zm0 0" fill="#5861c7"/><path d="m264.949219 511.828125c1.472656-.050781 2.945312-.097656 4.410156-.171875.867187-.042969 1.730469-.113281 2.59375-.164062 1.34375-.082032 2.6875-.15625 4.027344-.261719.90625-.070313 1.804687-.164063 2.710937-.242188 1.289063-.113281 2.578125-.21875 3.863282-.351562.925781-.09375 1.847656-.210938 2.769531-.316407 1.253906-.140624 2.503906-.277343 3.75-.4375.9375-.121093 1.871093-.261718 2.800781-.394531 1.226562-.171875 2.453125-.339843 3.675781-.527343.933594-.144532 1.859375-.308594 2.789063-.460938 1.214844-.203125 2.429687-.398438 3.636718-.621094.925782-.167968 1.84375-.351562 2.769532-.527344 1.203125-.234374 2.402344-.460937 3.597656-.710937.917969-.1875 1.828125-.394531 2.742188-.59375 1.191406-.261719 2.386718-.523437 3.574218-.800781.902344-.210938 1.800782-.4375 2.699219-.65625 1.1875-.292969 2.375-.585938 3.5625-.894532.886719-.234374 1.769531-.480468 2.652344-.71875 1.183593-.324218 2.367187-.648437 3.546875-.988281.867187-.25 1.730468-.515625 2.597656-.773437 1.183594-.355469 2.367188-.710938 3.542969-1.082032.847656-.269531 1.691406-.546874 2.535156-.824218 1.183594-.386719 2.363281-.777344 3.539063-1.183594.828124-.285156 1.648437-.578125 2.472656-.871094 1.183594-.417968 2.363281-.847656 3.539062-1.28125.804688-.300781 1.609375-.609375 2.414063-.917968 1.175781-.453126 2.351562-.910157 3.523437-1.378907.785156-.316406 1.570313-.640625 2.351563-.960937 1.179687-.488282 2.355469-.984375 3.527343-1.488282.761719-.324218 1.515626-.65625 2.269532-.992187 1.183594-.519531 2.359375-1.050781 3.53125-1.589844.734375-.339843 1.46875-.679687 2.195312-1.027343 1.1875-.558594 2.371094-1.128907 3.546875-1.707032.703125-.34375 1.402344-.691406 2.101563-1.042968 1.191406-.597657 2.375-1.207032 3.554687-1.820313.675781-.355469 1.351563-.710937 2.023438-1.070313 1.191406-.636718 2.375-1.28125 3.554687-1.933593.648438-.359375 1.296875-.722657 1.945313-1.089844 1.1875-.671875 2.375-1.355469 3.550781-2.050781.621094-.363282 1.242188-.726563 1.863281-1.097656 1.195313-.714844 2.386719-1.445313 3.570313-2.179688.585937-.363281 1.171875-.730469 1.753906-1.097656 1.203125-.761719 2.398438-1.535156 3.585938-2.316406.554687-.363282 1.109374-.722657 1.660156-1.089844 1.207031-.804688 2.40625-1.625 3.597656-2.449219.519531-.363281 1.042969-.71875 1.558594-1.082031 1.21875-.855469 2.425781-1.726563 3.625-2.601563.480468-.347656.960937-.695312 1.4375-1.046875 1.230468-.910156 2.449218-1.835937 3.664062-2.769531.433594-.332031.871094-.664063 1.304688-1 1.246094-.96875 2.476562-1.953125 3.703125-2.941406.390625-.316407.789062-.628907 1.179687-.949219 1.265625-1.035156 2.519532-2.085938 3.765625-3.148438.335938-.285156.675781-.566406 1.007813-.851562 1.296875-1.117188 2.578125-2.246094 3.851562-3.382812.277344-.25.558594-.492188.832032-.742188 1.332031-1.199219 2.644531-2.414062 3.949218-3.640625.210938-.199219.425782-.394531.636719-.589844 1.386719-1.3125 2.753906-2.644531 4.113281-3.988281.117188-.121094.242188-.234375.363282-.351562 1.464843-1.460938 2.914062-2.933594 4.347656-4.429688.007812-.007812.015625-.015625.019531-.019531-1.859375-4.5625-4.285156-8.855469-7.167969-12.8125-46.035156 44.375-108.65625 71.675781-177.65625 71.675781-69.050781 0-131.710937-27.339844-177.75-71.78125-2.890625 3.945312-5.324218 8.230469-7.195312 12.78125.011718.015625.03125.03125.042968.042969 1.421876 1.484375 2.863282 2.953125 4.320313 4.40625.164063.164062.335937.324219.5.488281 1.3125 1.296875 2.632813 2.585938 3.972656 3.855469.269531.253906.542969.503906.8125.753906 1.246094 1.171875 2.5 2.335937 3.769531 3.484375.339844.308594.683594.605469 1.027344.914062 1.207032 1.082032 2.421875 2.15625 3.652344 3.210938.398438.347656.808594.683594 1.210938 1.023438 1.179687 1.003906 2.367187 2.003906 3.566406 2.984374.453125.375.917968.738282 1.371094 1.105469 1.164062.9375 2.328124 1.871094 3.507812 2.789063.496094.390625 1 .765625 1.5 1.152344 1.148438.882812 2.304688 1.761718 3.472656 2.625.535156.398437 1.082032.789062 1.621094 1.183593 1.140625.832031 2.285156 1.65625 3.4375 2.46875.578125.40625 1.164062.804688 1.746094 1.207031 1.128906.785157 2.269531 1.5625 3.414062 2.328126.609375.40625 1.222656.804687 1.835938 1.207031 1.128906.742187 2.261718 1.476562 3.402344 2.203125.644531.40625 1.292968.808594 1.941406 1.210937 1.125.699219 2.253906 1.390625 3.386718 2.070313.675782.402344 1.355469.800781 2.03125 1.199218 1.121094.660157 2.253907 1.3125 3.386719 1.957032.699219.398437 1.398438.785156 2.101563 1.175781 1.128906.625 2.261718 1.246094 3.402344 1.851563.71875.386718 1.445312.765624 2.167968 1.144531 1.132813.589843 2.265625 1.171875 3.40625 1.75.746094.375 1.5.75 2.253906 1.117187 1.128907.554688 2.265626 1.105469 3.402344 1.640625.773438.367188 1.546875.730469 2.324219 1.085938 1.132813.519531 2.265625 1.035156 3.40625 1.539062.796875.351563 1.59375.703125 2.394531 1.046875 1.132813.488282 2.269532.964844 3.414063 1.4375.816406.339844 1.640625.675782 2.464843 1.007813 1.132813.453125 2.269532.898437 3.410157 1.335937.839843.324219 1.679687.644532 2.527343.960938 1.140626.421875 2.285157.835937 3.429688 1.246094.855469.304687 1.714844.609374 2.574219.90625 1.144531.394531 2.292969.773437 3.445312 1.152343.875.285157 1.75.574219 2.628907.851563 1.148437.363281 2.300781.710937 3.453124 1.058594.894532.269531 1.785157.539062 2.6875.800781 1.152344.332031 2.3125.648437 3.46875.96875.910157.246093 1.8125.5 2.722657.738281 1.164062.300781 2.332031.589844 3.5.878906.917969.226563 1.835937.457032 2.757812.671875 1.167969.273438 2.34375.53125 3.519531.789063.933594.203125 1.863282.414062 2.800782.609375 1.175781.242187 2.359375.46875 3.539062.699219.941406.179687 1.882813.367187 2.828125.539062 1.1875.21875 2.382813.410156 3.578125.609375.949219.160156 1.894532.324219 2.847656.472656 1.207032.1875 2.417969.351563 3.628907.523438.949219.132812 1.894531.277343 2.847656.398437 1.226563.15625 2.464844.292969 3.703125.433594.941406.109375 1.878906.226562 2.824219.324219 1.265625.128906 2.539062.234375 3.8125.347656.917969.082031 1.835937.171875 2.761719.246094 1.332031.105469 2.667968.175781 4.007812.261719.867188.054687 1.738281.121093 2.609375.164062 1.488281.078125 2.984375.125 4.476563.175781.730468.023438 1.453124.0625 2.183593.082031 2.226563.058594 4.460938.089844 6.703125.089844 2.238282 0 4.472656-.03125 6.699219-.085937.75-.023438 1.496094-.0625 2.246094-.089844zm0 0" fill="#4e56b0"/><path d="m252.953125 443.832031c42.566406 0 78.875-26.71875 93.121094-64.292969l-25.402344-8.347656c-7.832031-2.574218-13.152344-9.855468-13.222656-18.097656l-.296875-33.523438c-13.878906 12.492188-31.148438 20.234376-51.347656 20.414063-20.199219.175781-37.605469-7.261719-51.699219-19.503906l.285156 32.347656c.074219 8.371094-5.277344 15.828125-13.234375 18.441406l-30.625 10.042969c14.703125 36.636719 50.527344 62.519531 92.421875 62.519531zm0 0" fill="#ffe4d1"/><path d="m256.003906 20c138.03125 0 250.53125 109.253906 255.785156 246 .128907-3.320312.214844-6.648438.214844-10 0-141.382812-114.617187-256-256-256-141.386718 0-255.99999975 114.617188-255.99999975 256 0 3.351562.08203125 6.679688.21093775 10 5.253906-136.746094 117.753906-246 255.789062-246zm0 0" fill="#9fa5ff"/></svg>