<svg id="Capa_1" enable-background="new 0 0 512 512" height="512" viewBox="0 0 512 512" width="512" xmlns="http://www.w3.org/2000/svg"><g id="Cloud"><path d="m512 256c0 30.719-12.48 58.879-32.961 79.039-20.158 20.481-48.318 32.961-79.039 32.961h-288c-61.76 0-112-50.24-112-112 0-30.721 12.48-58.881 32.961-79.041 17.279-17.6 40.318-29.119 65.92-32 14.719-73.6 79.359-128.959 157.119-128.959s142.4 55.359 157.119 128.959c55.682 6.4 98.881 53.76 98.881 111.041z" fill="#4db5ff"/><circle cx="256" cy="208" fill="#80eaff" r="96"/><path d="m240 144h32v80h-32z" fill="#4db5ff"/><path d="m272 192h32v32h-32z" fill="#4db5ff"/><path d="m240 192h32v32h-32z" fill="#37f"/><path d="m320 432-64 64-64-64h32v-64h64v64z" fill="#80eaff"/><path d="m224 336h64v32h-64z" fill="#37f"/></g></svg>