<svg height="512pt" viewBox="-37 0 512 512" width="512pt" xmlns="http://www.w3.org/2000/svg" xmlns:xlink="http://www.w3.org/1999/xlink"><linearGradient id="a" gradientUnits="userSpaceOnUse" x1=".0001" x2="438.6759" y1="256" y2="256"><stop offset="0" stop-color="#2af598"/><stop offset="1" stop-color="#009efd"/></linearGradient><path d="m80 171c0-50.179688 40.820312-91 91-91v40c-28.121094 0-51 22.878906-51 51zm198.535156 87.667969c13.355469 4.300781 27.503906 6.816406 42.164063 7.257812-9.507813 17.496094-20.75 32.308594-31.410157 46.335938-21.328124 28.070312-38.179687 50.242187-38.179687 87.152343v52.585938c0 33.085938-26.914063 60-60 60h-38.222656c-33.082031 0-60-26.914062-60-60v-52.585938c0-36.910156-16.847657-59.082031-38.175781-87.152343-25.503907-33.5625-54.390626-71.574219-54.70703175-140.261719h-.00390625l.00390625-1.144531c.61718775-94.316407 77.53515575-170.855469 171.99609375-170.855469 15.308594 0 30.15625 2.023438 44.292969 5.792969-10.296875 10.472656-19.097657 22.410156-26.0625 35.472656-5.960938-.828125-12.042969-1.265625-18.230469-1.265625-72.617188 0-131.726562 58.9375-132 131.492188.171875 55.523437 22.707031 85.179687 46.558594 116.566406 18.507812 24.355468 37.527344 49.382812 44.007812 84.941406h82.867188c6.480468-35.558594 25.5-60.585938 44.007812-84.941406 7.363282-9.691406 14.601563-19.21875 21.09375-29.390625zm-67.425781 193.332031v-39h-78.222656v39c0 11.027344 8.972656 20 20 20h38.222656c11.03125 0 20-8.972656 20-20zm191.695313-319c-1.890626 7.328125-4.8125 14.242188-8.578126 20.605469l25.394532 25.394531-28.28125 28.285156-25.398438-25.394531c-6.457031 3.820313-13.488281 6.765625-20.941406 8.65625v35.453125h-40v-35.628906c-7.203125-1.894532-14.003906-4.777344-20.265625-8.480469l-25.394531 25.394531-28.285156-28.285156 25.394531-25.394531c-3.765625-6.363281-6.6875-13.277344-8.578125-20.605469h-35.871094v-40h35.871094c1.890625-7.328125 4.8125-14.242188 8.578125-20.605469l-25.394531-25.394531 28.285156-28.285156 25.394531 25.394531c6.550781-3.875 13.695313-6.84375 21.265625-8.730469v-35.378906h40v35.71875c7.082031 1.894531 13.773438 4.742188 19.941406 8.390625l25.398438-25.394531 28.28125 28.285156-25.394532 25.394531c3.765626 6.363281 6.6875 13.277344 8.578126 20.605469h35.871093v40zm-77.464844 20c22.054687 0 40-17.945312 40-40s-17.945313-40-40-40c-8.589844 0-16.546875 2.730469-23.070313 7.351562l-9.578125 9.578126c-4.625 6.523437-7.351562 14.480468-7.351562 23.070312 0 22.054688 17.941406 40 40 40zm0 0" fill="url(#a)"/></svg>