<svg height="512" viewBox="0 0 58 58" width="512" xmlns="http://www.w3.org/2000/svg"><g id="Page-1" fill="none" fill-rule="evenodd"><g id="011---Web-UI-Design" fill-rule="nonzero" transform="translate(-1)"><path id="Shape" d="m41 54-11 2-11-2 3-6 8-2 8 2z" fill="#3f5c6c"/><path id="Shape" d="m5 44h-4v-41.82c-.04521019-1.152631.84774936-2.12595691 2-2.18h54c1.1522506.05404309 2.0452102 1.027369 2 2.18v41.82z" fill="#2fa8cc"/><path id="Shape" d="m7 42v6h-4c-1.15225064-.0540431-2.04521019-1.027369-2-2.18v-3.82z" fill="#547580"/><path id="Shape" d="m59 42v3.82c.0452102 1.152631-.8477494 2.1259569-2 2.18h-44v-6z" fill="#547580"/><path id="Shape" d="m47 56c-.0032948 1.1032019-.8967981 1.9967052-2 2h-30c-1.1011688-.0081672-1.9918328-.8988312-2-2 .0032948-1.1032019.8967981-1.9967052 2-2h30c1.1011688.0081672 1.9918328.8988312 2 2z" fill="#547580"/><path id="Rectangle-path" d="m34.024 18.686h4.002v19.997h-4.002z" fill="#f0c419" transform="matrix(.707 -.707 .707 .707 -9.732 33.875)"/><path id="Rectangle-path" d="m36.854 15.857h4.002v19.997h-4.002z" fill="#f3d55b" transform="matrix(.707 -.707 .707 .707 -6.903 35.047)"/><path id="Shape" d="m53 42.83c-1.5642825 1.5597839-4.0957175 1.5597839-5.66 0l-2.83-2.83 5.66-5.66 2.83 2.83c1.5597839 1.5642825 1.5597839 4.0957175 0 5.66z" fill="#ff5364"/><path id="Shape" d="m50.17 34.34-5.66 5.66-2.83-2.83 2.83-2.83 2.83-2.83z" fill="#95a5a5"/><circle id="Oval" cx="49.46" cy="40.707" fill="#fb7b76" r="1"/><path id="Shape" d="m28.03 14.75c-.2481836.7232153-.6586734 1.3799991-1.2 1.92-.536793.5381313-1.1903682.9453326-1.91 1.19l-1.81-3.58c-.1904922-.3844854-.1144645-.8476428.1889463-1.1510537.3034109-.3034108.7665683-.3794385 1.1510537-.1889463z" fill="#464f5d"/><path id="Shape" d="m33.2 17.37-2.83 2.83-2.83 2.83-2.62-5.17c.7196318-.2446674 1.373207-.6518687 1.91-1.19.5413266-.5400009.9518164-1.1967847 1.2-1.92z" fill="#f9c795"/><path id="Shape" d="m45 7h-6c-.5522847 0-1-.44771525-1-1s.4477153-1 1-1h6c.5522847 0 1 .44771525 1 1s-.4477153 1-1 1z" fill="#fff"/><path id="Shape" d="m53 7h-4c-.5522847 0-1-.44771525-1-1s.4477153-1 1-1h4c.5522847 0 1 .44771525 1 1s-.4477153 1-1 1z" fill="#fff"/><path id="Shape" d="m53 15h-4c-.5522847 0-1-.4477153-1-1s.4477153-1 1-1h4c.5522847 0 1 .4477153 1 1s-.4477153 1-1 1z" fill="#fff"/><path id="Shape" d="m53 11h-9c-.5522847 0-1-.4477153-1-1 0-.55228475.4477153-1 1-1h9c.5522847 0 1 .44771525 1 1 0 .5522847-.4477153 1-1 1z" fill="#fff"/><path id="Shape" d="m33 37h-6c-.5522847 0-1-.4477153-1-1s.4477153-1 1-1h6c.5522847 0 1 .4477153 1 1s-.4477153 1-1 1z" fill="#fff"/><path id="Shape" d="m23 37h-4c-.5522847 0-1-.4477153-1-1s.4477153-1 1-1h4c.5522847 0 1 .4477153 1 1s-.4477153 1-1 1z" fill="#fff"/><path id="Shape" d="m23 29h-4c-.5522847 0-1-.4477153-1-1s.4477153-1 1-1h4c.5522847 0 1 .4477153 1 1s-.4477153 1-1 1z" fill="#fff"/><path id="Shape" d="m28 33h-9c-.5522847 0-1-.4477153-1-1s.4477153-1 1-1h9c.5522847 0 1 .4477153 1 1s-.4477153 1-1 1z" fill="#fff"/><path id="Shape" d="m5 24.86c-2.72799285 5.2954608-4.10222487 11.184045-4 17.14v-39.82c-.04521019-1.152631.84774936-2.12595691 2-2.18h54c.1311216-.00207169.2620289.01135469.39.04-6.04.24-27.74 1.89-42.39 13.18z" fill="#67b9cc"/><rect id="Rectangle-path" fill="#f0c419" height="46" rx="2" width="10" x="5" y="4"/><g fill="#f29c1f"><path id="Shape" d="m15 8v2h-4c-.5522847 0-1-.44771525-1-1s.4477153-1 1-1z"/><path id="Shape" d="m15 16v2h-4c-.5522847 0-1-.4477153-1-1s.4477153-1 1-1z"/><path id="Shape" d="m15 12v2h-2c-.5522847 0-1-.4477153-1-1s.4477153-1 1-1z"/><path id="Shape" d="m15 24v2h-4c-.5522847 0-1-.4477153-1-1s.4477153-1 1-1z"/><path id="Shape" d="m15 20v2h-2c-.5522847 0-1-.4477153-1-1s.4477153-1 1-1z"/><path id="Shape" d="m15 32v2h-4c-.5522847 0-1-.4477153-1-1s.4477153-1 1-1z"/><path id="Shape" d="m15 28v2h-2c-.5522847 0-1-.4477153-1-1s.4477153-1 1-1z"/><path id="Shape" d="m15 40v2h-4c-.5522847 0-1-.4477153-1-1s.4477153-1 1-1z"/><path id="Shape" d="m15 36v2h-2c-.5522847 0-1-.4477153-1-1s.4477153-1 1-1z"/><path id="Shape" d="m15 44v2h-2c-.5522847 0-1-.4477153-1-1s.4477153-1 1-1z"/></g></g></g></svg>